<svg width="19" height="34" viewBox="0 0 19 34" fill="none" xmlns="http://www.w3.org/2000/svg">
<path d="M18.3333 1.41667C18.3333 1.17356 18.2455 0.9404 18.0893 0.768492C17.933 0.596584 17.721 0.500006 17.5 0.500006H13.3333C11.2352 0.38504 9.181 1.18822 7.61954 2.73407C6.05808 4.27991 5.11631 6.44275 5 8.75001V13.7H0.833333C0.61232 13.7 0.400358 13.7966 0.244078 13.9685C0.0877975 14.1404 0 14.3736 0 14.6167V19.3833C0 19.6265 0.0877975 19.8596 0.244078 20.0315C0.400358 20.2034 0.61232 20.3 0.833333 20.3H5V32.5833C5 32.8265 5.0878 33.0596 5.24408 33.2315C5.40036 33.4034 5.61232 33.5 5.83333 33.5H10.8333C11.0543 33.5 11.2663 33.4034 11.4226 33.2315C11.5789 33.0596 11.6667 32.8265 11.6667 32.5833V20.3H16.0333C16.2186 20.3029 16.3996 20.2378 16.5475 20.115C16.6954 19.9921 16.8018 19.8185 16.85 19.6217L18.05 14.855C18.0832 14.7196 18.0876 14.5776 18.063 14.4399C18.0384 14.3023 17.9855 14.1727 17.9082 14.0611C17.8309 13.9495 17.7314 13.859 17.6173 13.7964C17.5032 13.7338 17.3775 13.7008 17.25 13.7H11.6667V8.75001C11.7081 8.29621 11.9019 7.87571 12.21 7.57061C12.5182 7.26551 12.9187 7.09772 13.3333 7.10001H17.5C17.721 7.10001 17.933 7.00343 18.0893 6.83152C18.2455 6.65961 18.3333 6.42645 18.3333 6.18334V1.41667Z" fill="#1F319D"/>
</svg>
