<svg width="33" height="33" viewBox="0 0 33 33" fill="none" xmlns="http://www.w3.org/2000/svg">
<path d="M32.4339 13.3174H31.125V13.25H16.5V19.75H25.6837C24.3439 23.5338 20.7437 26.25 16.5 26.25C11.1156 26.25 6.75 21.8844 6.75 16.5C6.75 11.1156 11.1156 6.75 16.5 6.75C18.9854 6.75 21.2466 7.68762 22.9683 9.21919L27.5646 4.62288C24.6624 1.91806 20.7803 0.25 16.5 0.25C7.52594 0.25 0.25 7.52594 0.25 16.5C0.25 25.4741 7.52594 32.75 16.5 32.75C25.4741 32.75 32.75 25.4741 32.75 16.5C32.75 15.4104 32.6379 14.3469 32.4339 13.3174Z" fill="#FFC107"/>
</svg>
