<svg width="122" height="84" viewBox="0 0 122 84" fill="none" xmlns="http://www.w3.org/2000/svg">
<g clip-path="url(#clip0_10_30)">
<path fill-rule="evenodd" clip-rule="evenodd" d="M41.1847 60.0709C40.8967 59.6301 40.4714 59.6456 40.2045 59.2866L39.8454 58.7409C39.6908 58.5344 39.5648 58.525 39.4687 58.2562C39.4052 58.0788 39.3586 57.6993 39.2517 57.5677C39.1288 57.4166 38.9413 57.2895 38.8248 57.1336C38.6901 56.9536 38.6607 56.7509 38.562 56.5344C38.4315 56.2481 38.366 56.2614 38.1647 56.0704C38.0098 55.9233 37.7158 55.1825 37.5551 54.9143C37.4031 54.6605 37.2854 54.717 37.1468 54.417C37.0405 54.187 37.0043 54.039 36.8275 53.8745C36.4572 53.5297 35.973 53.6273 35.314 53.6273C31.2376 53.6273 27.1613 53.6273 23.085 53.6273C21.5797 53.6273 20.8715 53.3482 20.3388 54.3615C20.4357 54.5071 20.4457 54.4478 20.5304 54.6437C20.6863 55.0035 20.7321 55.385 20.8275 55.7702C21.0403 56.63 21.2833 56.4863 21.4741 56.9767C21.6208 57.3542 21.805 58.0776 22.2261 58.1203C23.4155 58.2405 24.5887 58.0328 25.7883 58.0331C26.4226 58.0332 27.0036 58.0559 27.5665 57.9657C28.615 57.7978 28.775 57.9189 29.2888 57.8421C30.3368 57.6855 30.9358 57.6775 31.9125 57.8291C32.2662 57.884 32.181 57.8275 32.4079 58.0647L32.9499 58.599C33.2742 58.937 33.4457 59.4806 33.7359 59.7516C33.922 59.9254 33.9692 59.8924 34.1224 60.14C34.2779 60.3915 34.3328 60.6322 34.5512 60.8314C34.967 61.2104 34.74 60.8923 35.0276 61.4749C35.2399 61.9045 35.4482 62.0442 35.6591 62.3509C35.7244 62.4457 35.8771 62.7456 35.8677 62.9062C35.8469 63.2629 35.7916 63.8295 35.5788 64.131C35.0313 64.9066 35.143 65.8174 34.7992 66.3697C34.705 66.5211 34.593 66.5812 34.484 66.7866C34.3095 67.1158 34.2571 67.5976 34.1652 67.9775C33.8731 69.1838 33.6636 68.6102 33.3583 70.1889C33.1098 71.474 32.4723 71.5393 32.6636 72.4066C32.9541 73.7245 33.7226 73.2804 34.1474 73.9371C34.4343 74.3806 34.6739 74.2663 35.0409 74.5495C35.1941 74.6677 35.2443 74.8176 35.4113 74.954C35.5185 75.0414 35.7499 75.1467 35.8747 75.2219C36.3392 75.5021 36.3572 75.6322 36.704 75.8988C37.0741 76.1832 37.2395 76.0392 37.6208 76.4876C37.888 76.8016 38.209 76.8301 38.5899 77.024C39.1621 77.3154 39.078 77.1328 39.6422 76.9465C40.3446 76.7146 40.1501 76.6817 40.5083 76.3067C40.6358 76.1732 40.8293 76.1268 41.0071 76.0313C41.1968 75.9296 41.2763 75.8558 41.4181 75.7106C41.5843 75.5407 41.6399 75.4839 41.836 75.354C41.9828 75.2567 42.1113 75.1578 42.2802 75.0669C42.4093 74.9974 42.4128 75.0007 42.5184 74.9181C42.7363 74.7476 42.8409 74.5221 43.1081 74.3885C43.4 74.2426 43.5815 74.1373 43.7666 73.8852C43.94 73.6489 44.1694 73.5962 44.4365 73.4367C44.6966 73.2815 44.7677 73.0321 45.0102 72.891C45.0981 72.8398 45.1577 72.8043 45.2557 72.7494C46.1273 72.26 46.0711 71.992 46.5058 71.7616C46.664 71.6778 46.8435 71.6282 46.9859 71.5105C47.3494 71.21 47.1996 71.0101 48.0423 71.2667C48.5437 71.4195 48.402 71.6356 49.6946 71.8494C50.8133 72.0344 50.7148 72.369 51.9376 72.6151C52.3177 72.6915 52.775 72.7353 53.0865 72.9703C53.3432 73.1641 53.5435 73.5792 53.6366 73.9283C53.7528 74.3648 53.9645 74.5839 54.1033 74.9703C54.3648 75.6985 54.373 76.6527 54.7081 77.3419C54.7976 77.5259 54.898 77.6485 54.9803 77.8454C55.0617 78.0398 55.0807 78.2012 55.1198 78.4391C55.1943 78.8918 55.2486 79.3324 55.3431 79.7262C55.3848 79.9003 55.4603 80.1407 55.5236 80.2788C55.6029 80.4513 55.7152 80.5506 55.7956 80.7394C55.9708 81.1512 55.9882 81.5038 56.0781 81.9668C56.1688 82.4342 56.2679 82.7402 56.6468 82.9061C56.8274 82.985 57.0359 83.032 57.2099 83.1167L57.7445 83.313C58.1477 83.3921 58.531 83.4745 59.0427 83.4745H63.1191C63.4288 83.4745 64.0787 83.3258 64.2468 83.1844C64.6647 82.8323 65.2111 82.0428 65.36 81.4973C65.4607 81.1284 65.5367 80.7959 65.6079 80.3647C65.8514 78.8884 66.0902 79.3024 66.283 78.2367C66.3556 77.8351 66.4017 77.457 66.4913 77.0642C66.6662 76.2989 66.9416 76.4492 67.2276 74.9979C67.4827 73.704 67.3365 74.0635 67.8721 73.5302C68.2119 73.1918 68.249 72.9849 68.5933 72.8739C69.1471 72.6954 69.7703 72.6453 70.3135 72.4889C70.5469 72.4217 70.6164 72.4058 70.8151 72.3028C70.9874 72.2136 71.0765 72.128 71.2655 72.0651C71.7479 71.9048 72.4107 71.8115 72.9084 71.6457C73.003 71.6141 73.0819 71.5904 73.1605 71.5538C73.1961 71.5372 73.3743 71.4236 73.3743 71.4236C73.477 71.4236 74.163 71.5307 74.2275 71.5583C74.321 71.5981 74.4078 71.6776 74.5188 71.7402C74.7826 71.8885 75.098 71.943 75.2655 72.198C75.558 72.6437 75.9228 72.5729 76.2357 72.9058C76.3356 73.0121 76.3129 73.0668 76.4298 73.1856C76.5951 73.3541 76.8144 73.4153 77.0142 73.5475C77.2223 73.6852 77.333 73.8346 77.5172 73.9914C78.0367 74.4334 78.4039 74.3884 78.6541 74.7906C78.7916 75.0118 78.9311 75.087 79.1814 75.2101C79.4471 75.3408 79.5301 75.4095 79.6985 75.6398C79.8938 75.9068 80.3054 76.0218 80.5722 76.2288L80.7078 76.3516C81.1557 76.8317 81.4554 76.8813 82.0253 77.1418C82.4461 77.3341 82.5292 77.7096 82.9749 77.2436C83.2441 76.962 83.6866 76.9029 83.9639 76.6409C84.2563 76.3648 84.0868 76.3215 84.5294 76.1303C85.4954 75.7128 85.2678 75.5713 85.7656 75.2581C86.0968 75.0498 86.305 75.0433 86.5772 74.7361C86.8037 74.4806 87.0972 74.4246 87.3638 74.2321L87.6367 73.9886C87.6811 73.9427 87.6745 73.948 87.7217 73.9013C88.5078 73.1221 89.1057 73.5488 88.8103 72.1694C88.752 71.8971 88.5372 71.7358 88.4397 71.5059C88.2308 71.0141 88.2041 70.3218 87.9788 69.8533C87.8594 69.6051 87.6852 69.4249 87.577 69.178C87.3578 68.6782 87.3636 68.013 87.1349 67.5067C87.0798 67.3845 87.0137 67.2409 86.9398 67.1413C86.7101 66.8316 86.5903 66.3783 86.5082 65.9778C86.2648 64.7904 86.0673 65.0478 85.8758 64.4978C85.5569 63.5814 85.6933 63.8636 85.6898 63.174C85.6862 62.4495 85.9556 62.5356 86.2306 62.1636C86.6047 61.6577 86.6198 61.4822 87.1386 60.961C87.3298 60.7688 87.402 60.5002 87.5342 60.2795C87.675 60.0444 87.9034 60.0224 88.0597 59.7719C88.3986 59.2288 88.2144 59.3301 88.7048 58.8232C88.8861 58.6359 88.9888 58.4056 89.1751 58.2167C89.2833 58.1071 89.3148 58.0389 89.4636 57.9888C89.5928 57.9453 89.7203 57.9272 89.8685 57.8781C89.962 57.8471 89.975 57.844 90.0576 57.8092C90.1728 57.7608 90.1246 57.7313 90.2376 57.7313C90.9294 57.7313 91.7291 57.7641 92.3518 57.8491C92.8678 57.9195 93.1375 57.8097 94.1288 57.9608C94.6585 58.0416 95.3843 57.9712 95.9888 57.989C96.2858 57.9978 96.5243 58.0779 96.8441 58.0783C97.4314 58.079 98.0909 58.0144 98.6659 58.1017C99.9726 58.3004 99.7027 57.8548 100.315 57.0335C100.666 56.5622 100.67 56.2989 100.819 55.6408C101.075 54.5122 101.583 54.5575 101.19 54.0059C100.997 53.7337 100.58 53.7072 100.233 53.6754C99.6339 53.6202 95.7984 53.6712 95.0006 53.6712C94.0102 53.6712 86.3555 53.7394 85.4676 53.6333C84.8646 53.5612 84.1253 54.0009 83.8616 54.6389C83.8081 54.7684 83.7897 54.818 83.7397 54.9481C83.4993 55.5725 83.4488 55.3327 83.2071 55.7077C83.0212 55.9961 82.834 56.6925 82.624 56.8919C82.1162 57.3741 82.2331 57.2559 81.9735 57.9649C81.8633 58.2661 81.7371 58.2636 81.5944 58.4903C81.4546 58.7125 81.4684 58.846 81.2141 58.9713C80.9571 59.098 80.8603 59.0601 80.6848 59.3023C80.5191 59.5307 80.5867 59.6438 80.3182 59.7971C80.076 59.9355 79.9511 59.9238 79.7966 60.1792C79.4865 60.692 79.2046 60.7185 78.9404 61.0882C78.6332 61.5183 78.4184 61.4449 78.0341 61.9467C77.7389 62.3321 77.3187 62.3556 77.0644 62.6985C76.902 62.9177 76.8493 62.9481 76.5742 63.0689C75.8799 63.3738 76.2608 63.4939 75.5771 63.8361C74.1246 64.5629 75.0412 64.4396 73.9262 64.8092C73.6519 64.9001 73.4208 65.0418 73.2284 65.2298C72.7946 65.6535 72.1193 65.6416 71.6329 65.9992C70.8603 66.567 70.6322 66.423 69.7638 66.7094C69.6144 66.7587 69.5546 66.7714 69.4332 66.8517C69.3334 66.9177 69.288 66.9852 69.1911 67.0399C68.61 67.3685 67.739 67.3463 67.1242 67.5509C66.6398 67.7121 66.4068 67.9295 65.821 68.01C65.3551 68.0739 64.7663 68.1687 64.2777 68.1842L61.8203 68.3453C61.4245 68.3999 58.8197 68.3415 58.3876 68.2825L56.7687 68.1412C56.5186 68.1258 56.2293 68.0857 55.9927 68.0585C55.7164 68.0267 55.487 67.994 55.2044 67.945C54.8687 67.8867 54.8656 67.7999 54.6101 67.6793C53.8189 67.3061 52.5874 67.4842 51.8344 66.9315C51.4478 66.648 51.0127 66.6227 50.5407 66.4629C49.7144 66.1829 49.8518 66.0374 49.4318 65.8515C49.1334 65.7194 48.3031 65.5587 48.1074 65.4137C47.9145 65.2708 47.8829 65.1137 47.6312 64.9861C47.2342 64.7847 46.8223 64.681 46.5029 64.3509C46.1119 63.9472 45.7176 63.9917 45.4161 63.717C45.2326 63.5497 45.2458 63.4418 44.987 63.285C44.8599 63.2081 44.7978 63.2002 44.676 63.1231C44.2368 62.8451 43.9106 62.429 43.4677 62.1364C42.8837 61.7509 43.0773 61.607 42.5091 61.3305C42.114 61.1384 42.2939 61.2137 42.0934 60.8851C42.0124 60.7523 41.8061 60.5424 41.6515 60.4659C41.5174 60.3995 41.4709 60.413 41.3662 60.3213C41.2912 60.2556 41.246 60.165 41.1851 60.0716L41.1847 60.0709Z" fill="#EEEDF3"/>
<path fill-rule="evenodd" clip-rule="evenodd" d="M38.9183 6.02795C38.7842 6.22945 38.7614 6.24631 38.5504 6.39193C38.2557 6.5952 37.8915 6.64249 37.6736 6.93478C37.3416 7.38047 36.9258 7.35312 36.4403 7.80978C36.0591 8.16822 35.4951 8.31395 35.2105 8.68819C34.9447 9.03755 34.4783 9.06208 34.1871 9.38574C33.7699 9.849 33.9812 9.56885 33.6095 9.88425C33.1328 10.2888 33.1627 10.2606 33.1677 10.7354C33.1737 11.2925 33.3852 11.9748 33.5485 12.47C33.685 12.884 33.8287 13.0566 34.0134 13.4274C34.3356 14.0744 34.3414 14.928 34.7306 15.513C35.1364 16.1228 35.0927 16.9597 35.4272 17.6193C35.6511 18.0607 35.7349 18.0834 35.863 18.6059C36.1474 19.7653 36.1868 19.2341 36.1301 20.3262C36.1163 20.5939 36.0639 20.6575 35.9495 20.8354C35.7676 21.1181 35.5618 21.315 35.3622 21.5833C35.2531 21.7301 35.1746 21.8351 35.0995 22.01C34.9158 22.4381 34.8131 22.3809 34.5449 22.661C34.3892 22.8237 34.3331 22.9593 34.227 23.1618C34.0258 23.5457 33.8092 23.5645 33.5989 23.9116C33.2215 24.5339 33.2189 24.5269 32.707 25.0438C32.419 25.3346 32.3502 25.5173 31.9283 25.5991C31.2631 25.7276 30.5076 25.681 29.8214 25.681C29.4341 25.681 29.1452 25.5822 28.7655 25.531C28.4192 25.4842 28.1371 25.5514 27.7617 25.5514C26.7527 25.5514 25.894 25.3911 24.8851 25.3803C24.6251 25.3776 24.4687 25.3341 24.1574 25.3353C21.9156 25.3437 22.0085 24.8877 21.5308 26.4061C21.4194 26.7601 21.1731 27.0724 21.0256 27.4093C20.8878 27.7242 20.6337 28.8167 20.5886 29.2588L20.4672 29.8707C20.8406 29.8791 21.1214 30.0435 21.5828 30.0435H35.4852C35.6481 30.0435 35.8602 29.9604 35.9943 29.9082C36.5063 29.7092 36.7796 29.5905 36.9817 28.9584C37.1167 28.5356 37.2576 28.4711 37.4687 28.1528C37.6348 27.9025 37.749 27.6068 37.8745 27.3087C38.021 26.9608 38.2597 26.986 38.4605 26.6028C38.6345 26.2708 38.6377 26.0626 38.9068 25.7994C39.1154 25.5953 39.296 25.297 39.4335 25.0337C39.529 24.8508 39.5447 24.7922 39.6132 24.5668C39.6629 24.4031 39.7315 24.3266 39.8375 24.1878C40.0876 23.8607 40.0143 23.6208 40.4473 23.5057C41.0138 23.3551 40.8131 23.2502 41.1416 22.952C41.419 22.7002 41.6383 22.7996 41.8967 22.4164C42.3956 21.677 42.5231 21.9563 42.8469 21.4724C43.1634 20.9995 43.316 21.1505 43.863 20.5946C44.189 20.2632 44.635 20.0854 44.9785 19.774C45.4886 19.3118 45.7239 19.3167 46.1031 19.0055C46.2697 18.8687 46.2335 18.8077 46.4341 18.6909L47.2854 18.2951C47.813 18.0348 47.447 18.0186 48.4869 17.6042C49.2173 17.3131 49.3656 16.9852 50.1937 16.7739C51.3088 16.4892 51.0076 16.4125 51.532 16.1772C52.236 15.8617 52.8989 16.0553 53.9364 15.4446C54.4194 15.1602 55.3622 15.1842 56.0258 15.0858C56.3689 15.035 56.7575 14.9748 57.1463 14.9179C58.2034 14.7628 59.6009 14.6664 60.6725 14.6664C62.4773 14.6664 64.73 14.968 66.5392 15.2399C67.1531 15.3321 67.5157 15.6693 68.5283 15.8722C70.0339 16.1739 69.6514 16.3496 70.4499 16.6159C70.8409 16.7463 71.3974 16.811 71.7538 17.0311C71.8883 17.1141 71.8728 17.1389 71.9777 17.2377C72.3766 17.6135 73.0967 17.603 73.4707 17.9375C73.684 18.1284 73.6957 18.1932 73.9733 18.3386C74.3709 18.5467 74.7952 18.6353 75.1219 18.9534C75.4303 19.2537 75.8909 19.3352 76.1727 19.6234C76.3169 19.7709 76.4158 19.9402 76.604 20.0529C77.3369 20.4919 77.2304 20.6581 77.5778 20.8437C78.0322 21.0867 78.1972 21.3133 78.5718 21.614L80.0026 23.0244C80.2106 23.2074 80.4759 23.2813 80.7095 23.4359C80.813 23.5044 80.8453 23.5753 80.9487 23.627C81.1245 23.715 81.3731 23.7506 81.4697 23.9665C81.5558 24.159 81.5178 24.5187 81.5788 24.7636C81.6338 24.9838 81.8325 25.0646 81.9631 25.2426C82.1107 25.4438 82.168 25.7658 82.3472 25.9769C82.6911 26.3821 82.6833 26.1471 83.0133 26.8181C83.1907 27.1788 83.3347 27.3318 83.5439 27.6231C83.7308 27.8833 83.8109 28.216 83.9565 28.5035C84.0917 28.7705 84.4755 29.2435 84.6774 29.5489C84.7439 29.6493 84.809 29.7385 84.8717 29.8284C85.1213 30.1867 85.4129 30.0399 85.8592 30.0427L98.0887 30.0431C99.2362 30.0431 99.8348 30.0881 100.909 29.938C100.957 29.9314 101.178 29.9311 101.178 29.8272C101.178 29.3889 101.02 28.9315 100.912 28.497C100.766 27.9106 100.66 27.2255 100.42 26.6602C100.342 26.4784 100.235 26.3579 100.134 26.1706C99.9767 25.8798 99.804 25.3959 99.4511 25.3061C99.4218 25.2986 95.4699 25.4359 95.0307 25.496C94.8258 25.5242 94.4888 25.5342 94.3107 25.5487L91.309 25.6803C90.5278 25.6776 90.0859 25.827 89.3793 25.4637L89.1007 25.2258C88.9497 25.0457 88.7958 24.7993 88.6369 24.656C88.2319 24.2907 88.2636 24.2607 87.9924 23.7499C87.8045 23.3963 87.6943 23.6006 87.3104 22.8815C87.0964 22.4806 86.8458 22.3714 86.6239 22.0176C85.8332 20.7562 85.6236 21.0366 85.7755 19.8941C85.8417 19.3964 86.0886 19.2327 86.2593 18.8261C86.4762 18.3094 86.5325 17.422 86.7777 17.0155C86.8855 16.8367 86.9986 16.7482 87.0871 16.5496C87.2323 16.2243 87.3275 15.7168 87.4215 15.3313C87.5775 14.6923 87.7287 14.7001 87.9028 14.2607C88.0532 13.8806 88.1201 13.4595 88.2376 13.0428C88.4216 12.3896 89.0835 11.5538 88.9952 11.1243C88.8507 10.422 88.802 10.305 88.2225 9.95594C87.7428 9.66695 87.7496 9.65256 87.3524 9.27656C87.0827 9.02117 86.703 9.01527 86.3849 8.69574C86.0028 8.31207 85.8249 8.33329 85.4859 8.04571C85.1613 7.77016 85.0625 7.57031 84.6308 7.3517C84.1683 7.11754 84.2828 7.14371 83.9823 6.83821C83.758 6.61018 83.5461 6.5254 83.2272 6.43202C82.4303 6.19868 82.8163 6.17333 82.0561 6.56113C81.3918 6.9 81.3395 7.14077 80.9971 7.30937C80.2905 7.65732 80.5875 7.60356 80.2505 7.93995C80.1612 8.02909 80.0899 8.04324 79.9838 8.10349C79.3105 8.48586 79.1478 8.839 78.407 9.23729C78.1955 9.35095 78.1047 9.51508 77.9334 9.66766C77.7695 9.81363 77.5456 9.87246 77.3545 9.99202C77.0948 10.1546 77.0944 10.2435 76.9048 10.4463C76.7641 10.5968 76.8031 10.5509 76.6241 10.6389C76.138 10.8779 75.8266 11.3515 75.3485 11.6009C75.1668 11.6957 74.9143 11.7975 74.7474 11.903C74.1486 12.281 74.4344 12.4939 73.0303 11.859C72.4892 11.6143 71.7125 11.6105 71.1361 11.3469C70.9655 11.2688 70.7979 11.166 70.6282 11.0808C69.9442 10.7371 68.91 10.7781 68.3408 10.2302C67.9898 9.89227 67.931 9.27974 67.7529 8.79207C67.5786 8.31501 67.3671 7.86248 67.2556 7.34887C67.204 7.11153 67.1737 6.93914 67.127 6.70097C67.0267 6.19054 66.9436 5.89377 66.7144 5.51811C66.3066 4.84969 66.3986 3.6791 66.0652 2.97531C65.8987 2.62394 65.7226 2.27363 65.6385 1.84987C65.4867 1.08453 65.5541 0.573634 64.7487 0.369889C64.525 0.313293 64.3845 0.226984 64.1733 0.171567C63.3313 -0.0493926 60.7049 -0.0235707 59.6404 0.0650963C59.171 0.104242 58.4643 -0.0159066 58.1489 0.0742931C57.7857 0.178052 57.3417 0.299498 57.1184 0.636243C56.9975 0.818765 56.9262 0.902952 56.8706 1.16435C56.7078 1.92875 56.7787 1.69789 56.4521 2.3412C56.168 2.90102 56.1009 3.56886 55.996 4.2144C55.921 4.67578 55.7123 4.94638 55.5475 5.36118C55.1653 6.32354 55.3471 6.84953 54.8228 7.78478C54.312 8.69597 54.6999 9.60599 53.9271 10.0794L53.6167 10.3284C53.3985 10.5173 53.259 10.5786 52.9309 10.6316C52.457 10.7078 52.0274 10.7663 51.6026 10.8927C51.4167 10.948 51.2051 11.0344 51.0541 11.1179C50.863 11.2233 50.7888 11.3161 50.547 11.3851C49.936 11.5594 49.2483 11.603 48.6711 11.8723C48.5253 11.9403 48.3446 12.1615 48.186 12.1615C48.0624 12.1615 46.979 11.6042 46.8696 11.5431C46.0631 11.0925 46.4332 11.034 45.7691 10.707C45.1108 10.3829 45.6078 10.3507 44.652 9.88791C44.544 9.83556 44.444 9.77578 44.3591 9.70763C44.0652 9.47169 44.3223 9.55411 43.5863 9.06019C43.139 8.76012 42.7904 8.35086 42.508 8.20182C41.9448 7.90469 41.9962 7.68597 41.3915 7.38201C41.087 7.22884 40.9476 7.01838 40.7163 6.80909C40.68 6.77619 40.6331 6.74459 40.5926 6.71759C40.0629 6.36422 39.597 6.06238 38.9178 6.02795H38.9183Z" fill="#EEEDF3"/>
<path fill-rule="evenodd" clip-rule="evenodd" d="M49.9888 58.94C49.7832 58.94 49.1203 58.6961 49.0078 58.502L48.7745 58.0023C48.6501 57.72 48.6813 57.7873 48.7005 57.4727C48.7346 56.9122 48.6197 56.6676 49.2416 56.2011C49.3459 56.1229 49.6232 55.83 49.9029 55.83C50.714 55.83 50.7897 55.8246 51.0693 56.2541C51.3301 56.6548 51.5054 56.5307 51.6751 56.8105C51.7438 56.9238 51.7479 56.9534 51.75 57.1237C51.7538 57.4199 51.8196 57.6517 51.745 57.8561C51.6595 58.0904 51.6013 58.1552 51.4359 58.3238C51.2273 58.5364 51.392 58.5089 51.0625 58.7252C50.6463 58.9986 50.5504 58.9401 49.9886 58.9401L49.9888 58.94ZM46.8994 57.6441C46.8994 58.579 47.2568 58.6194 47.5435 59.1986C47.6153 59.3437 47.6767 59.5257 47.7737 59.658C48.004 59.9722 48.317 59.9986 48.6346 60.2168C48.7972 60.3284 48.8636 60.4543 49.036 60.547C49.1941 60.6322 49.3725 60.6512 49.5774 60.6931C49.9202 60.7632 50.5104 60.7583 50.8494 60.67C51.2361 60.5692 51.4428 60.3479 51.7664 60.1678C53.0517 59.4524 52.9251 58.8204 53.3489 58.5214C53.4541 58.4472 53.4479 58.4636 53.5415 58.3696C53.662 58.2484 53.7433 58.1305 53.8229 57.9619C54.1149 57.3435 54.2231 57.6181 54.4877 57.2056C54.596 57.0368 54.6224 56.8823 54.7432 56.7285C54.8832 56.5501 54.9722 56.5696 55.1289 56.4257C55.3251 56.2453 55.2953 56.2166 55.4242 55.9885C55.6486 55.5911 55.9138 55.5848 56.1176 55.2612C56.2528 55.0465 56.3892 54.8245 56.5866 54.6535C57.0204 54.2779 57.2997 53.7146 57.7557 53.3684C58.0407 53.1521 58.1406 52.8324 58.4235 52.6152C58.9232 52.232 58.8366 51.8484 59.2785 51.6186C59.5066 51.5001 59.6739 51.329 59.7867 51.0935C59.9827 50.6847 60.2598 50.7811 60.5009 50.387C60.6127 50.2046 60.6053 50.0858 60.7937 49.9474C60.9632 49.8232 61.0574 49.8521 61.1965 49.6619C61.3075 49.5102 61.3389 49.3366 61.4566 49.1893C61.6133 48.9932 61.6673 49.0291 61.8572 48.9015C62.2098 48.6644 62.1767 48.3224 62.5034 48.1266C62.9791 47.8414 62.8535 47.6896 63.1708 47.3732C63.3129 47.2314 63.4656 47.1775 63.5799 47.0507C63.6874 46.9312 63.757 46.7578 63.8474 46.6288C64.0957 46.2746 64.3281 46.3642 64.5755 45.9364C64.7552 45.6261 65.0424 45.4821 65.2755 45.2157L65.7416 44.605C65.8498 44.4752 65.7826 44.5415 65.9143 44.4334C66.1684 44.2248 66.2574 43.8343 66.3974 43.4942C66.599 43.0041 66.8087 43.084 67.0734 42.7493L68.0889 41.6118C68.3553 41.3995 68.6994 41.2688 68.9961 41.0996C69.0935 41.0442 69.341 40.8946 69.341 40.7556C69.341 39.9645 69.5074 40.0769 68.8681 39.5903C68.5005 39.3104 68.6338 39.2607 68.13 38.951C67.8376 38.771 67.7173 38.468 67.5388 38.2287C67.2232 38.227 66.7535 38.1774 66.5363 38.4508C66.4347 38.5786 66.3456 38.6869 66.2589 38.8194C65.7637 39.577 66.3408 38.9606 65.4461 39.8586C65.3166 39.9886 65.2821 40.086 65.147 40.2052L64.504 40.8106C64.3575 40.9547 64.316 40.9539 64.1427 41.0517C63.1248 41.6258 63.3536 41.8641 62.8569 42.2627C62.5985 42.4699 62.4486 42.5263 62.1853 42.796C61.3938 43.6063 61.7019 43.2224 60.7497 43.856C60.4421 44.0606 60.4154 44.2742 60.1466 44.5015C60.0211 44.6077 59.9031 44.6448 59.7836 44.7407C59.5425 44.9342 59.4689 45.2192 59.1969 45.4027C59.0156 45.5251 59.0067 45.4766 58.8376 45.6457C58.5742 45.909 58.5601 46.046 58.2028 46.2593C57.8431 46.474 57.8555 46.6735 57.5961 46.9012C57.3277 47.1369 57.1446 47.0502 56.8968 47.4066C56.4943 47.9857 56.3007 47.7599 55.9524 48.3565C55.7965 48.6233 55.4482 48.6691 55.2586 48.9108C54.9294 49.3307 55.2139 49.232 54.6593 49.517C54.5083 49.5946 54.4273 49.6523 54.3107 49.7708C53.8231 50.2665 54.271 49.8945 53.654 50.3624C53.2824 50.6442 53.0232 50.9633 52.65 51.2521C52.5286 51.3458 52.4286 51.4066 52.2965 51.5009C52.1667 51.5934 52.2324 51.534 52.1404 51.6462C51.527 52.3923 51.5444 52.0088 51.0063 52.6643C50.8825 52.8151 50.8286 52.8671 50.6395 52.9429C50.1544 53.1373 50.2602 53.2504 49.9871 53.5393C49.8692 53.6639 49.7456 53.6834 49.6019 53.7554C49.2897 53.9118 49.1893 54.0819 48.9494 54.3082C48.3794 54.8455 48.0995 54.6721 47.6424 55.4977L47.1557 56.2605C46.9317 56.6937 46.8997 57.1217 46.8997 57.644L46.8994 57.6441Z" fill="#EEEDF3"/>
<path fill-rule="evenodd" clip-rule="evenodd" d="M87.1477 38.2071C87.1477 38.5496 87.2599 38.9487 87.3948 39.1677C87.6397 39.5649 87.7571 39.4141 88.2202 39.4161L95.1288 39.3733C98.2182 39.3733 101.308 39.3733 104.397 39.3733C105.486 39.3733 119.867 39.4363 120.586 39.3424C121.202 39.262 121.334 39.3726 121.45 39.0464C121.789 38.0971 121.596 37.93 121.604 36.9538C121.606 36.6954 121.635 36.5987 121.509 36.4447C121.256 36.1345 120.527 36.177 120.059 36.1771L88.8214 36.1339C88.6122 36.1339 87.7802 36.087 87.7171 36.0988C87.4835 36.1425 87.1479 36.3992 87.1479 36.6955V38.2072L87.1477 38.2071Z" fill="#EEEDF3"/>
<path fill-rule="evenodd" clip-rule="evenodd" d="M71.7864 36.1338C71.7148 36.1338 71.3603 35.9351 71.4041 35.5379C71.4596 35.0342 71.344 34.6636 71.96 34.624C72.4074 34.5952 72.4994 34.5043 72.7393 34.6994C73.0223 34.9296 72.945 34.9558 72.945 35.6155C72.945 35.8055 72.6785 36.1338 72.5158 36.1338H71.7864ZM63.0331 35.7451C63.0851 35.8446 63.1034 35.9647 63.2819 36.0993C63.813 36.4999 64.8223 36.2385 65.1525 36.2867C65.3171 36.3107 65.5419 36.3217 65.6628 36.3374C66.3152 36.4215 66.626 36.3367 67.0368 36.682C67.1448 36.7727 67.2451 36.8348 67.3804 36.8976C67.6584 37.0266 67.8789 37.1207 68.1773 37.2183C68.7133 37.3938 68.5484 37.4935 68.7913 37.7234C69.0068 37.9274 69.2198 37.9084 69.4465 38.1902C69.5584 38.3295 69.5911 38.4239 69.6822 38.5543C69.7911 38.7104 69.8385 38.7083 69.985 38.8111C70.4735 39.1539 70.2344 39.5951 70.8109 40.2257C71.3887 40.8577 71.2677 42.7483 71.2719 43.6065C71.2728 43.7902 71.2365 44.0391 71.2388 44.127C71.2416 44.2361 71.3439 44.4209 71.4107 44.5029C71.5243 44.6424 71.5942 44.6496 71.7437 44.7292C72.4478 44.2546 72.0998 44.2685 72.4218 44.0298C72.8211 43.7337 72.7597 44.0015 73.1383 43.3688C73.3349 43.0403 73.6429 43.0547 73.865 42.718C74.4755 41.792 74.1866 42.6453 74.8506 41.637C74.9633 41.466 75.0625 41.4276 75.2282 41.326C75.6069 41.0937 75.5638 40.8458 75.8743 40.5941C76.0373 40.4621 76.1223 40.489 76.2836 40.3152C76.424 40.1639 76.4164 40.0561 76.5585 39.9008C76.8096 39.6268 77.0753 39.6314 77.2648 39.2729C77.6516 38.5412 78.2605 38.9642 78.2681 37.5144C78.2709 36.9825 77.7666 36.8389 77.6285 36.7756C77.2935 36.6221 77.4474 36.2615 77.0293 36.0398C76.8635 35.952 76.7091 35.9336 76.6086 35.7722C76.2666 35.2225 76.6993 35.5053 75.9265 35.0765C75.7359 34.9709 75.7368 34.8416 75.6501 34.6636C75.4306 34.2126 75.0864 34.3798 74.9032 34.0334C74.8101 33.8571 74.8122 33.7429 74.6509 33.599C74.5161 33.4787 74.3617 33.4631 74.2259 33.3762C73.9264 33.1844 74.0808 32.8448 73.6007 32.6233C73.3877 32.5251 73.312 32.5341 73.2092 32.3264C72.8401 31.5818 72.9874 32.0174 72.5071 31.6509C72.3655 31.5429 72.3473 31.3656 72.253 31.2156C72.0191 30.8437 71.6879 30.977 71.5224 30.612C71.4404 30.4311 71.4267 30.3192 71.2562 30.1889C71.0974 30.0675 70.9158 30.0435 70.8086 29.9483C70.5679 29.7347 70.7762 29.3721 70.1238 29.2565C69.8564 29.2091 69.3036 29.4366 69.1241 29.5662C68.9837 29.6676 68.9208 29.7939 68.8085 29.9396C68.7089 30.0687 68.6075 30.1562 68.4941 30.2709C68.3582 30.4084 68.2435 30.4571 68.1325 30.598C67.8349 30.9754 66.5168 32.2073 66.423 32.3327C66.2362 32.5821 66.0078 32.795 65.7539 32.9983L64.7315 34.0422C64.6221 34.1861 64.5197 34.2705 64.3958 34.3952C64.1565 34.636 63.9474 34.8446 63.7093 35.0864C63.4515 35.3483 63.1618 35.501 63.0334 35.7451H63.0331Z" fill="#EEEDF3"/>
<path fill-rule="evenodd" clip-rule="evenodd" d="M3.05176e-05 46.6729C3.05176e-05 46.8137 0.107664 46.9684 0.181919 47.0513C0.287796 47.1694 0.392033 47.2001 0.561975 47.2301C0.939221 47.297 1.13622 47.321 1.5876 47.3208L33.3808 47.323C33.5325 47.3358 33.6912 47.3984 33.889 47.3561C34.0885 47.3134 34.37 46.9635 34.37 46.7161V45.0748C34.37 44.8266 34.0779 44.4259 33.8988 44.4064C33.682 44.3828 33.1536 44.4721 32.8692 44.471C24.6948 44.4372 16.4612 44.47 8.28139 44.47C7.23656 44.47 1.43675 44.4051 0.537614 44.5361C0.280183 44.5735 0.289787 44.5506 0.169036 44.7265C0.10661 44.8175 3.05176e-05 44.9667 3.05176e-05 45.1179V46.6729H3.05176e-05Z" fill="#EEEDF3"/>
<path fill-rule="evenodd" clip-rule="evenodd" d="M48.7445 34.9675C48.7445 34.8663 48.9355 34.6824 49.0247 34.645C49.1997 34.5715 49.6427 34.5788 49.8601 34.5788C49.9729 34.5788 50.2463 34.8359 50.2463 34.9676C50.2463 35.5357 50.3394 35.8079 49.9925 36.0522C49.8252 36.1701 49.0541 36.0876 48.9733 36.0331C48.6583 35.8205 48.7445 35.4101 48.7445 34.9676V34.9675ZM58.2702 36.2633C58.4091 36.2633 58.6032 36.0388 58.6702 35.9279C58.7772 35.7511 58.7105 35.6118 58.5835 35.4728C58.312 35.1756 58.1752 35.3985 57.8548 34.824C57.6217 34.406 57.3614 34.4573 57.1364 34.1218C56.7208 33.5026 56.7707 33.7848 56.4136 33.4672C56.0819 33.1721 56.3304 33.1038 55.724 32.736C55.37 32.5213 55.3758 32.2138 55.0711 32.011C54.372 31.5458 54.7178 31.6635 54.3777 31.2835C54.1308 31.0076 53.9755 31.1583 53.6608 30.623C53.4175 30.209 53.1796 30.2861 52.9233 29.94L52.6681 29.549C52.5161 29.3884 52.4429 29.3261 52.1774 29.3089C50.6897 29.2131 51.3148 29.5161 50.8394 29.9923C50.7251 30.1068 50.778 30.0744 50.6322 30.1292C49.9825 30.3739 50.4045 30.7204 49.7372 30.9991C49.2563 31.2001 49.4225 31.5334 49.1079 31.7479C48.9039 31.8871 48.856 31.7908 48.6667 31.9948C48.3239 32.3639 48.6995 32.3708 47.9928 32.6987C47.5775 32.8913 47.7383 33.2849 47.3484 33.4753C47.1467 33.5739 47.0529 33.5256 46.9153 33.7305C46.7912 33.9155 46.8405 34.0054 46.6769 34.1816C46.4925 34.3802 46.4656 34.3114 46.2399 34.4327C45.9921 34.5659 46.0538 34.6477 45.949 34.8742C45.8827 35.0174 45.7614 35.1317 45.5862 35.2001C44.985 35.4345 45.3094 35.6065 44.9384 35.9303C44.7737 36.0741 44.6193 36.0497 44.4636 36.1866C44.2878 36.3411 44.3393 36.4735 44.2278 36.6405C43.9762 37.0173 43.6624 36.7163 43.4688 37.2606C43.3908 37.4798 43.5401 38.1834 43.655 38.3627C43.7508 38.5121 43.8729 38.5947 44.0162 38.6903C44.162 38.7877 44.269 38.8847 44.375 39.0202C44.9842 39.7984 44.7278 39.3632 45.0883 39.7276C45.2161 39.8568 45.2794 39.9738 45.3907 40.1143C45.529 40.289 45.5923 40.2968 45.7667 40.4271C46.0791 40.6605 46.1475 40.9485 46.4448 41.1699C46.6167 41.2981 46.6797 41.3128 46.8244 41.4788C46.9379 41.6089 47.0078 41.7445 47.1234 41.869C47.3774 42.1426 47.4267 41.9741 47.843 42.5699C48.0561 42.8748 48.3226 42.9317 48.5555 43.2349C49.1098 43.9562 49.0098 43.6542 49.2476 43.9203C49.5935 44.3074 49.4118 44.3114 49.9031 44.6426L50.1056 44.5009C50.1455 44.4687 50.2492 44.3676 50.2793 44.3302C50.6221 43.9034 50.2433 42.158 50.5872 40.8824C50.6649 40.5945 50.7861 40.5746 50.9259 40.3595C51.1698 39.9843 51.3106 39.3443 51.4253 39.1344C51.5391 38.9265 51.7405 38.8832 51.8879 38.7362C52.0735 38.551 52.0597 38.3652 52.2076 38.1941C52.3938 37.9786 52.5323 38.007 52.7237 37.85C53.0074 37.6171 52.9916 37.4941 53.1088 37.3737C53.2973 37.1799 53.9528 37.1572 54.4909 36.6916C55.1982 36.0797 57.2833 36.2633 58.2703 36.2633H58.2702Z" fill="#EEEDF3"/>
<path fill-rule="evenodd" clip-rule="evenodd" d="M35.3998 36.8249C35.3998 36.5025 35.2423 36.4138 35.0284 36.2917C34.81 36.1668 34.6342 36.1439 34.2905 36.1832C33.6251 36.2593 29.9305 36.2201 29.0923 36.2201C23.0333 36.2201 16.8106 36.2689 10.7698 36.2198C10.3324 36.2162 10.3573 36.1924 10.1346 36.444C9.97284 36.6268 9.99579 36.843 9.99779 37.1702C9.99978 37.5127 9.95504 37.6935 9.95281 37.9901C9.9493 38.4612 10.1242 39.1915 10.4371 39.2765C10.6056 39.3224 28.3345 39.2868 29.6072 39.2868C30.3042 39.2868 33.4534 39.245 33.9816 39.289C34.1962 39.3068 34.5183 39.382 34.7819 39.3125C35.583 39.101 35.4 37.4636 35.4 36.8246L35.3998 36.8249Z" fill="#EEEDF3"/>
<path fill-rule="evenodd" clip-rule="evenodd" d="M86.0933 46.216C86.0107 46.6648 85.941 46.6902 86.1241 46.9685C86.5509 47.6171 87.2618 47.4154 87.5753 47.4059C88.2198 47.3866 88.9017 47.4073 89.5504 47.4073C92.1823 47.4073 94.814 47.4073 97.4457 47.4073C100.103 47.4073 102.632 47.3642 105.298 47.3642C105.784 47.3642 110.997 47.4 111.211 47.3557C111.391 47.3183 111.623 47.021 111.674 46.8282C111.742 46.5723 111.649 46.172 111.649 45.8955C111.649 45.3718 111.808 45.1557 111.562 44.7301C111.329 44.3276 111.216 44.3836 110.619 44.3838H95C94.5275 44.3839 94.2227 44.3403 93.7555 44.3407H86.8902C86.7915 44.3407 86.5782 44.4338 86.5055 44.4719C85.6396 44.9251 86.2473 45.3791 86.0932 46.2161L86.0933 46.216Z" fill="#EEEDF3"/>
<path fill-rule="evenodd" clip-rule="evenodd" d="M69.8126 57.7305C69.8126 57.501 69.8245 57.1689 69.8655 56.9631C69.9154 56.7131 70.1077 56.6366 70.2341 56.5566C70.3961 56.4539 70.5233 56.3243 70.6275 56.1751C70.7765 55.9619 70.7754 55.9109 71.1417 55.9153C71.4971 55.9195 71.748 55.7677 72.0716 56.1044C72.4159 56.4623 72.4107 56.2694 72.6397 56.5259C72.8602 56.7727 72.9077 56.8394 72.9026 57.2117C72.8973 57.5857 72.9806 57.6241 72.8768 57.9199C72.8065 58.1205 72.7612 58.3518 72.695 58.5156C72.6033 58.7429 72.45 58.7393 72.2205 58.8153C72.0825 58.8612 71.7722 59.0101 71.652 59.0234C71.6508 59.0235 70.9026 58.9757 70.8944 58.9739C70.7767 58.9491 70.5258 58.756 70.4183 58.6756C70.1905 58.5053 69.8126 58.0247 69.8126 57.7305V57.7305ZM61.9602 50.9491C61.9602 51.3277 62.2624 51.5426 62.4751 51.6833C62.7139 51.8413 62.6001 52.1574 63.1554 52.5966C63.2395 52.6632 63.2928 52.6845 63.3589 52.7805L63.8783 53.4671C63.9613 53.5668 63.9515 53.5843 64.0522 53.6808C64.6175 54.2217 64.5002 54.2851 65.0171 54.7396C65.3476 55.0304 65.3413 55.1895 65.5331 55.4296C65.6696 55.6002 65.8122 55.6613 65.9633 55.8173C66.3384 56.2046 65.902 56.0776 66.6808 56.6932C66.8522 56.8288 66.8569 56.9866 66.971 57.1786C67.3338 57.7887 67.3147 57.3659 67.7074 58.0355C68.0845 58.6782 68.1785 58.5913 68.4466 58.9328C68.6991 59.2543 68.8524 59.634 69.1541 59.8186C69.7082 60.1577 69.8758 60.4124 70.0438 60.5212C70.4121 60.7599 71.6445 60.8123 72.1054 60.7298C72.9173 60.5844 72.77 60.4164 73.1338 60.1669C73.3044 60.0499 73.4796 60.0173 73.6389 59.8981C74.0389 59.5986 73.9725 59.2392 74.244 58.9089C74.5145 58.58 74.661 58.268 74.661 57.7306C74.661 56.3881 74.7174 56.8381 74.148 55.8714C73.8589 55.3804 73.5224 54.9512 73.0166 54.6778C72.8639 54.5953 72.6048 54.5149 72.4972 54.4231C72.3598 54.3059 72.335 54.1357 72.156 53.9891C71.9845 53.8487 71.8111 53.8231 71.6516 53.7193C71.4733 53.6035 71.4039 53.4345 71.279 53.2736C71.0131 52.9313 70.8754 53.1422 70.4379 52.5654C70.2914 52.3721 70.2165 52.345 70.0079 52.2207C69.591 51.9723 69.5013 51.767 69.175 51.5042L68.415 50.8871C67.942 50.3489 67.5822 50.1199 67.5069 50.0301C66.9048 49.3116 66.9008 49.5935 66.6283 49.3596C66.4626 49.2174 66.4738 48.9357 66.1154 48.7095C66.0323 48.6569 65.942 48.6329 65.8584 48.5795C65.6925 48.4735 65.6532 48.2844 65.5296 48.1328C65.1561 47.6746 64.603 47.8364 64.3485 48.2998C64.2875 48.411 64.2916 48.4629 64.197 48.536C64.143 48.5776 64.1211 48.5782 64.0573 48.6113L63.728 48.8415C63.5682 49.0133 63.5483 49.1571 63.4275 49.3165C63.3269 49.4493 63.1253 49.5118 62.9787 49.6421C62.7665 49.8305 62.7969 49.8554 62.6618 50.1005C62.5526 50.2983 61.9599 50.5296 61.9599 50.949L61.9602 50.9491Z" fill="#EEEDF3"/>
<path fill-rule="evenodd" clip-rule="evenodd" d="M81.9233 33.3157C81.6504 33.0424 81.7446 32.9542 81.2601 32.558C81.1739 32.4874 81.2137 32.5131 81.1105 32.4493C80.7459 32.2236 80.9193 32.0432 80.2993 31.6246C79.898 31.3537 80.1582 31.4062 79.7794 31.0248C79.4273 30.6703 79.4229 30.867 79.2005 30.5279C78.7669 29.8665 78.5841 30.0491 78.3639 29.6854C78.0073 29.0962 77.7475 29.1671 77.5434 28.8701C77.3384 28.572 77.306 28.507 77.0031 28.2908C76.4262 27.8787 76.7752 27.8874 76.1698 27.4451C76.065 27.3685 75.9572 27.3238 75.8804 27.2182C75.669 26.9276 75.7607 26.9213 75.3545 26.6245C74.9316 26.3153 75.148 26.49 74.834 26.0687C74.5947 25.7477 73.9314 25.3637 73.374 25.3354C73.1672 25.4749 72.6874 26.173 72.6874 26.5016C72.6874 26.6204 72.9828 27.0767 73.0678 27.2006L73.1359 27.3061C73.3507 27.6758 73.2421 27.3748 73.5785 27.7213C73.6804 27.8262 73.7562 27.8959 73.8581 28.0014C73.9836 28.1313 73.9808 28.2095 74.0734 28.3029C74.1784 28.4085 74.2448 28.378 74.3726 28.5201L74.8502 29.1192C74.8843 29.1661 75.5396 29.6369 75.668 29.8573C75.8086 30.0987 76.1212 30.1997 76.4516 30.6171C76.5873 30.7885 76.4913 30.7848 76.6841 30.9014L76.862 31.0246C76.9142 31.0746 76.9379 31.104 76.989 31.1559C77.1497 31.3191 77.2585 31.3904 77.3564 31.5636C77.4938 31.8064 77.4436 31.6901 77.6262 31.8103C77.8778 31.9759 78.1696 32.4083 78.258 32.5133C78.3473 32.6193 78.4317 32.6151 78.5563 32.7314C78.6513 32.8202 78.7183 32.8978 78.8128 32.9917C79.0581 33.2349 78.937 33.1059 79.059 33.3054C79.179 33.5017 79.1881 33.4007 79.3494 33.5314L79.8306 34.0837C79.8961 34.1933 79.8141 34.1299 79.9281 34.2448L80.6698 34.7939C80.8376 34.9123 80.8116 34.8822 80.926 35.0542C81.317 34.846 81.1203 34.886 81.7359 34.6601C82.3596 34.4312 82.4887 33.8819 81.9234 33.3159L81.9233 33.3157Z" fill="#EEEDF3"/>
<path fill-rule="evenodd" clip-rule="evenodd" d="M49.86 27.02C49.7521 27.1683 49.2486 27.667 49.0338 27.7431C48.9643 27.7676 48.8642 27.7811 48.808 27.8182C48.6107 27.9488 48.714 28.3954 48.0771 28.6374C47.8315 28.7309 47.8942 28.8255 47.8192 28.9825C47.5634 29.5189 47.1347 29.3675 47.0049 29.7178C46.9272 29.9272 47.0572 29.7767 46.7606 30.0765C46.588 30.2508 46.6511 30.2295 46.3932 30.3114C46.1224 30.3972 46.2176 30.4222 46.1327 30.6539C46.0727 30.8172 45.9528 30.8876 45.8387 31.0059C45.6007 31.2524 45.6612 31.088 45.4556 31.2249C45.3092 31.3224 45.3278 31.6749 44.9253 31.9005C44.7331 32.0083 44.6013 31.9266 44.495 32.1151C44.4213 32.2457 44.4475 32.445 44.1564 32.6813C44.1502 32.6864 44.0674 32.7481 44.0568 32.7541C43.983 32.7963 44.0551 32.7648 43.9681 32.7943C43.7473 32.8692 43.7025 32.7965 43.6217 33.0503C43.5107 33.3987 43.3586 33.5685 42.9975 33.6745C42.7576 33.7449 42.8364 33.8124 42.7489 34.029C42.5621 34.4909 42.1297 34.5485 42.0674 34.5957C41.9621 34.6753 41.9432 34.8803 41.8773 35.0091C41.4599 35.8257 41.2237 35.5463 41.9338 36.511C42.4681 37.2371 42.4519 36.7545 42.9883 36.5163C43.1215 36.4571 43.2681 36.4143 43.4114 36.3374C43.8129 36.1222 43.6907 35.8605 43.925 35.645C44.129 35.4571 44.3862 35.5637 44.6007 35.0726C44.8235 34.5628 44.9535 34.7944 45.2588 34.5256C45.533 34.2845 45.3587 34.0293 45.8203 33.8382C46.2861 33.6455 46.224 33.4039 46.3757 33.1879C46.5583 32.9275 46.8697 32.9736 47.0709 32.6351C47.1763 32.4577 47.1241 32.4071 47.293 32.2539C47.4214 32.1374 47.5268 32.1394 47.6825 32.0413C48.0378 31.8179 47.9007 31.5203 48.2308 31.3406C48.3805 31.2591 48.4957 31.2537 48.62 31.1277C48.72 31.0262 48.7702 30.8881 48.8434 30.748C49.0484 30.3558 49.26 30.5197 49.525 30.1814C49.6463 30.0265 49.6427 29.9266 49.73 29.7833C49.8283 29.6221 49.9287 29.6422 50.1046 29.5556C50.2595 29.4792 50.3422 29.3837 50.4372 29.2425C50.5453 29.0819 50.537 28.9777 50.6431 28.8452C50.8462 28.5916 51.4511 28.2461 50.8982 27.7892C50.7883 27.6984 50.6587 27.6411 50.5288 27.5564C50.1497 27.3091 50.2297 27.2693 49.86 27.0202V27.02Z" fill="#EEEDF3"/>
<path fill-rule="evenodd" clip-rule="evenodd" d="M77.9137 32.8597C77.7858 32.7537 77.6886 32.8157 77.4905 32.6811C77.3932 32.6149 77.2632 32.4815 77.2165 32.3522C77.1468 32.1599 77.2048 32.0578 76.9918 31.9738C76.8316 31.9104 76.4923 31.8992 76.3451 31.4155C76.1639 30.8204 75.7461 31.3413 75.4773 30.5181C75.356 30.1469 75.2999 30.4843 74.7992 29.992C74.5719 29.7683 74.7116 29.8171 74.5975 29.5895C74.4925 29.3799 74.2137 29.5095 73.9003 29.0822C73.7735 28.9092 73.859 28.8133 73.7123 28.6667C73.5601 28.5143 73.2904 28.6122 73.0247 28.1927C72.9253 28.0356 72.9756 27.8977 72.8171 27.797C72.7422 27.7493 72.4984 27.6813 72.3868 27.6254C72.0406 27.4524 71.7912 27.2492 71.6015 27.3474C71.4868 27.4067 71.3293 27.5151 71.2342 27.587C71.0399 27.7338 70.7569 27.9494 70.6281 28.1432C70.7233 28.3243 70.7553 28.3768 70.8747 28.5429C71.0879 28.8392 71.0615 29.2172 71.3054 29.4049C71.451 29.5169 71.5711 29.5064 71.7233 29.5893C72.0575 29.771 71.9122 30.069 72.2502 30.3116C72.4179 30.432 72.517 30.377 72.6807 30.5261C72.9388 30.7612 72.7975 31.0838 73.2298 31.226C73.4434 31.2963 73.4665 31.2813 73.6015 31.4565C73.8742 31.8107 73.5447 31.8458 74.1957 32.111C74.5909 32.2721 74.4334 32.5738 74.7348 32.8209C74.8908 32.949 75.0025 32.9044 75.1666 33.0342C75.3676 33.193 75.3037 33.1984 75.3909 33.4128C75.5775 33.8717 75.8767 33.6578 76.1097 33.9853C76.3184 34.2785 76.1203 34.436 76.6954 34.6483C77.1339 34.81 76.9376 35.0901 77.2462 35.3464C77.6014 35.6414 77.6681 35.3088 77.8989 35.9418C78.0433 36.3378 78.366 36.2562 78.6217 36.4669L78.7932 36.6399C78.8197 36.6799 78.9763 37.0462 79.2901 37.0279C79.5708 37.0115 79.8095 36.5647 79.92 36.4169C80.2928 35.9173 80.7972 35.8041 80.1559 35.3978C79.7617 35.1481 79.7519 34.8432 79.6772 34.6702C79.5883 34.4641 79.5065 34.519 79.3002 34.4451C78.8747 34.2928 78.881 33.8609 78.7919 33.7474C78.669 33.5907 78.5591 33.674 78.3746 33.5628C77.9481 33.3062 78.0972 33.0118 77.9142 32.86L77.9137 32.8597Z" fill="#EEEDF3"/>
<path fill-rule="evenodd" clip-rule="evenodd" d="M54.0651 38.2934C53.6331 39.1152 53.4767 38.6416 52.9682 39.3056C52.7945 39.5326 52.4189 39.852 52.3712 39.9574C52.3426 40.0208 52.2621 40.6424 52.2638 40.7158C52.2682 40.8896 52.3183 40.8684 52.4205 40.9855C52.6463 41.2443 52.6798 41.3403 53.0351 41.5763C53.119 41.6321 53.2089 41.698 53.2945 41.7471C53.3925 41.8033 53.4404 41.8185 53.5391 41.8896C54.0619 42.2663 53.8051 42.3098 54.3606 42.7474C54.504 42.8603 54.6343 43.0191 54.762 43.164C55.1123 43.5613 55.2185 43.6177 55.4425 44.1636C55.5588 44.4473 55.8422 44.4992 56.2021 45.0401C56.4708 45.4438 56.6332 45.5751 57.0785 45.1711C57.5181 44.7723 57.8724 44.9303 58.2267 44.2535C58.3286 44.0588 58.399 44.0371 58.5195 43.8573C59.0943 43.0002 58.7153 43.4788 58.9377 42.8961C59.0325 42.6478 59.1095 42.75 59.1712 42.4833C58.8431 42.3248 58.6453 42.4519 58.4261 42.0671C58.3392 41.9142 58.329 41.758 58.2404 41.6493C58.1266 41.5098 57.4035 41.1083 57.2566 40.912C57.0825 40.6795 56.9642 40.4584 56.7869 40.2185C56.3808 39.669 55.86 39.7536 55.4274 39.2545C54.654 38.3623 55.2409 38.8917 54.4365 38.4811C54.3 38.4114 54.2001 38.3722 54.0649 38.2936L54.0651 38.2934Z" fill="#EEEDF3"/>
<path fill-rule="evenodd" clip-rule="evenodd" d="M41.4817 34.3948C41.8853 34.191 41.6564 34.2522 41.8483 33.9862C41.9067 33.9052 42.0455 33.785 42.125 33.7034C42.2821 33.5419 42.2258 33.5865 42.4327 33.4947C42.6578 33.3948 42.5437 33.4043 42.6534 33.1984L43.046 32.7729C43.3208 32.5268 43.3169 32.8182 43.4732 32.4257C43.5465 32.2418 43.8133 31.951 43.9835 31.8594C44.2165 31.7339 44.1757 31.8788 44.2892 31.6057C44.3661 31.4207 44.6025 31.1779 44.7649 31.0479C44.9132 30.9295 44.9797 30.9871 45.0869 30.8538C45.1931 30.7216 45.1285 30.6815 45.2997 30.5064C45.7897 30.0053 45.7545 30.1991 45.903 30.0338C45.9906 29.9363 46.0025 29.8251 46.0952 29.7091C46.1865 29.5948 46.4141 29.4044 46.5515 29.3477C47.0616 29.1371 46.721 28.921 47.2978 28.5009C47.6332 28.2566 47.384 28.6834 47.6938 28.1221C47.7697 27.9847 48.0785 27.6824 48.2179 27.6129C48.4378 27.5035 48.3915 27.5853 48.5059 27.3413C48.6345 27.067 49.0965 26.5745 49.1737 26.4585C48.9727 26.1564 48.6298 25.5215 48.4843 25.3814C48.2575 25.163 48.1352 25.1314 47.7557 25.4198C47.5935 25.5432 47.6543 25.581 47.4407 25.7074C47.1182 25.8982 46.9598 25.9498 46.762 26.2768C46.444 26.8022 46.5527 26.4416 46.1156 26.8787C45.9597 27.0346 45.9643 27.0153 45.8563 27.2224C45.767 27.3939 45.6912 27.4111 45.5344 27.5032C45.0529 27.7858 45.1586 27.8813 44.9523 28.1697C44.8104 28.368 44.487 28.3662 44.2668 28.7322C43.9607 29.2412 44.2598 28.9422 43.8004 29.2129C43.341 29.4837 43.441 29.8147 43.0817 30.0013C42.7856 30.1549 42.6716 30.2709 42.5172 30.556C42.4977 30.5919 42.49 30.6137 42.4742 30.6423C42.3313 30.9009 42.0131 30.8927 41.7919 31.2082C41.713 31.3208 41.6349 31.5296 41.5442 31.6067C41.4562 31.6815 41.2898 31.7383 41.1665 31.8312C40.7906 32.1144 40.8592 32.375 40.6343 32.5048C40.4718 32.5986 40.4565 32.5372 40.2363 32.7521C39.8671 33.1124 40.0035 33.24 39.7666 33.4886C39.5213 33.7459 39.323 34.0133 39.5698 34.268C39.6824 34.3842 39.7726 34.435 39.9188 34.5221C40.1761 34.6754 40.4446 34.8103 40.6779 34.9675L41.482 34.3948H41.4817Z" fill="#EEEDF3"/>
</g>
<defs>
<clipPath id="clip0_10_30">
<rect width="121.651" height="83.4738" fill="white"/>
</clipPath>
</defs>
</svg>
