<svg width="39" height="36" viewBox="0 0 39 36" fill="none" xmlns="http://www.w3.org/2000/svg">
<path d="M39 4.2616C37.5396 4.99645 35.9906 5.47881 34.4044 5.69263C36.0566 4.56787 37.3251 2.78679 37.9225 0.664641C36.3519 1.72327 34.6335 2.46914 32.8417 2.87002C31.3821 1.10381 29.3027 0 27.0013 0C22.5824 0 18.9997 4.06918 18.9997 9.08799C18.9997 9.80039 19.0705 10.4939 19.2069 11.1593C12.5571 10.7801 6.66138 7.16207 2.71492 1.66359C2.02632 3.00585 1.63175 4.56718 1.63175 6.23251C1.63175 9.38562 3.04444 12.1672 5.19127 13.7971C3.92064 13.7519 2.67797 13.3621 1.56701 12.6602C1.56655 12.6983 1.56655 12.7363 1.56655 12.7746C1.56655 17.1779 4.32458 20.8512 7.98479 21.6861C6.80655 22.05 5.57065 22.1033 4.3715 21.8418C5.38962 25.4524 8.34463 28.0798 11.8458 28.1534C9.10741 30.5908 5.65729 32.0438 1.90871 32.0438C1.26278 32.0438 0.62598 32.0007 0 31.9168C3.54093 34.4954 7.74668 36 12.2652 36C26.9827 36 35.0305 22.1515 35.0305 10.142C35.0305 9.74779 35.0229 9.35585 35.0074 8.96617C36.5738 7.67995 37.9258 6.08683 39 4.2616Z" fill="#55ACEE"/>
</svg>
